<svg aria-hidden="true" style="position: absolute; width: 0; height: 0; overflow: hidden;" version="1.1" xmlns="http://www.w3.org/2000/svg" xmlns:xlink="http://www.w3.org/1999/xlink">
<defs>
<symbol id="icon-facebook" viewBox="0 0 32 32">
<path d="M21.076 5.313h2.887v-5.088c-0.498-0.069-2.211-0.225-4.205-0.225-4.162 0-7.013 2.649-7.013 7.519v4.481h-4.593v5.688h4.593v14.312h5.631v-14.311h4.407l0.7-5.688h-5.108v-3.919c0.001-1.644 0.439-2.769 2.702-2.769z"></path>
</symbol>
<symbol id="icon-messenger" viewBox="0 0 32 32">
<path d="M16 1.28c-8.098 0-14.72 6.143-14.72 13.76 0 4.165 2.005 7.863 5.12 10.38v5.72l0.94-0.5 4.62-2.4c1.29 0.345 2.633 0.56 4.040 0.56 8.098 0 14.72-6.143 14.72-13.76s-6.622-13.76-14.72-13.76zM16 2.56c7.453 0 13.44 5.605 13.44 12.48s-5.988 12.48-13.44 12.48c-1.385 0-2.725-0.2-3.98-0.56l-0.24-0.060-0.22 0.12-3.88 2.020v-4.2l-0.24-0.18c-2.985-2.297-4.88-5.755-4.88-9.62 0-6.875 5.987-12.48 13.44-12.48zM14.54 11.34l-7.7 8.16 6.92-3.88 3.7 3.96 7.6-8.24-6.74 3.78-3.78-3.78z"></path>
</symbol>
<symbol id="icon-viber" viewBox="0 0 32 32">
<path d="M15.284 3.394c-2.295 0.031-7.232 0.408-9.994 2.938-2.050 2.038-2.767 5.043-2.85 8.765-0.072 3.707-0.155 10.669 6.556 12.565v2.885c0 0-0.045 1.156 0.718 1.395 0.942 0.298 1.478-0.595 2.372-1.548l1.669-1.883c4.589 0.381 8.106-0.499 8.511-0.631 0.93-0.298 6.176-0.967 7.034-7.929 0.882-7.189-0.429-11.719-2.789-13.769l-0.012-0.002c-0.715-0.656-3.576-2.742-9.977-2.765 0 0-0.472-0.030-1.237-0.019v-0zM15.364 5.417c0.65-0.004 1.049 0.024 1.049 0.024 5.412 0.012 8 1.645 8.607 2.193 1.991 1.703 3.013 5.788 2.265 11.791-0.715 5.817-4.971 6.187-5.757 6.437-0.334 0.107-3.433 0.87-7.333 0.62 0 0-2.907 3.506-3.813 4.412-0.143 0.155-0.31 0.203-0.417 0.179-0.155-0.036-0.203-0.227-0.191-0.489l0.024-4.791c-5.687-1.573-5.353-7.512-5.294-10.611 0.072-3.099 0.656-5.641 2.384-7.357 2.333-2.11 6.526-2.396 8.475-2.408l0.001 0zM15.793 8.516c-0.047-0-0.093 0.009-0.136 0.027s-0.083 0.044-0.116 0.077-0.060 0.072-0.078 0.115c-0.018 0.043-0.027 0.089-0.028 0.136v0.001c0 0.047 0.009 0.093 0.027 0.137s0.044 0.083 0.078 0.116 0.073 0.060 0.116 0.078c0.043 0.018 0.090 0.027 0.137 0.027 0.886-0.017 1.767 0.142 2.591 0.467s1.576 0.811 2.212 1.428c1.299 1.264 1.932 2.956 1.956 5.173 0 0.047 0.009 0.093 0.027 0.137s0.044 0.083 0.078 0.116 0.073 0.060 0.116 0.078c0.043 0.018 0.090 0.027 0.137 0.027v-0.011c0.095 0 0.186-0.038 0.253-0.105s0.105-0.158 0.105-0.253c0.044-1.043-0.124-2.083-0.495-3.059s-0.937-1.865-1.662-2.615c-1.418-1.383-3.209-2.098-5.319-2.098h0.001zM11.080 9.339c-0.254-0.036-0.512 0.014-0.733 0.143h-0.014c-0.512 0.299-0.974 0.678-1.368 1.121-0.322 0.381-0.502 0.762-0.55 1.131-0.028 0.217-0.008 0.437 0.060 0.645l0.024 0.012c0.367 1.080 0.847 2.119 1.43 3.099 0.756 1.373 1.686 2.643 2.765 3.78l0.036 0.048 0.048 0.036 0.072 0.072c1.141 1.082 2.415 2.016 3.791 2.777 1.573 0.858 2.529 1.264 3.102 1.43v0.012c0.154 0.046 0.314 0.070 0.474 0.072 0.488-0.036 0.951-0.234 1.314-0.563 0.442-0.392 0.817-0.855 1.109-1.368v-0.012c0.274-0.513 0.179-1.003-0.215-1.336-0.793-0.694-1.651-1.308-2.563-1.836-0.608-0.334-1.228-0.131-1.478 0.203l-0.536 0.678c-0.274 0.334-0.775 0.286-0.775 0.286l-0.014 0.012c-3.719-0.954-4.708-4.719-4.708-4.719s-0.048-0.513 0.298-0.775l0.668-0.536c0.322-0.262 0.548-0.882 0.203-1.49-0.527-0.912-1.142-1.771-1.836-2.563-0.151-0.187-0.364-0.314-0.601-0.358zM16.412 10.4c-0.047 0-0.093 0.010-0.137 0.028s-0.083 0.045-0.116 0.078c-0.033 0.033-0.059 0.073-0.077 0.116s-0.027 0.090-0.027 0.137c0 0.047 0.010 0.093 0.028 0.137s0.045 0.083 0.078 0.116c0.033 0.033 0.073 0.059 0.116 0.077s0.090 0.027 0.137 0.027c1.193 0.021 2.329 0.514 3.159 1.371 0.374 0.413 0.662 0.897 0.847 1.423s0.261 1.084 0.226 1.64c0 0.095 0.038 0.185 0.105 0.252s0.158 0.104 0.252 0.104l0.012 0.014c0.095 0 0.186-0.038 0.253-0.105s0.105-0.158 0.105-0.253v-0.001c0.036-1.418-0.405-2.611-1.275-3.564s-2.086-1.49-3.636-1.597c-0.017-0.001-0.033-0.001-0.050 0zM16.996 12.329c-0.097-0.003-0.19 0.033-0.261 0.099s-0.111 0.158-0.114 0.254c-0.003 0.097 0.033 0.19 0.099 0.261s0.158 0.111 0.254 0.114c1.18 0.060 1.752 0.656 1.824 1.883 0.003 0.093 0.042 0.181 0.109 0.245s0.156 0.101 0.249 0.101h0.012c0.047-0.001 0.093-0.012 0.136-0.031s0.081-0.047 0.114-0.081 0.057-0.074 0.074-0.118c0.017-0.044 0.024-0.091 0.023-0.138-0-0.004-0-0.009-0.001-0.013-0.083-1.597-0.954-2.493-2.503-2.576-0.005-0-0.010-0-0.014 0z"></path>
</symbol>
<symbol id="icon-close-40px" viewBox="0 0 32 32">
<path d="M23.733 10.304l-1.504-1.504-5.963 5.963-5.963-5.963-1.504 1.504 5.963 5.963-5.963 5.963 1.504 1.504 5.963-5.963 5.963 5.963 1.504-1.504-5.963-5.963 5.963-5.963z"></path>
</symbol>
<symbol id="icon-menu-40px" viewBox="0 0 32 32">
<path d="M6.4 11.733v-2.133h19.2v2.133h-19.2zM6.4 17.067h19.2v-2.133h-19.2v2.133zM6.4 22.4h19.2v-2.133h-19.2v2.133z"></path>
</symbol>
</defs>
</svg>
